<svg xmlns="http://www.w3.org/2000/svg" xmlns:svg="http://www.w3.org/2000/svg" id="svg2" width="24" height="24" version="1.1"><metadata id="metadata7"/><g id="layer1" transform="translate(0,-1028.3622)"><g id="g3043" transform="matrix(0.70712074,-0.70710678,0.70712074,0.70710678,-735.46474,319.5415)"><rect id="rect2987" width="2.857" height="8" x="17.949" y="1042.989" rx="1" ry="1" transform="matrix(0.99999995,-3.1484358e-4,-3.6143743e-4,0.99999993,0,0)" style="fill:#2e3436;fill-opacity:1;stroke:#2e3436;stroke-width:.99999022;stroke-linecap:round;stroke-linejoin:miter;stroke-miterlimit:4;stroke-opacity:1;stroke-dasharray:none"/><path id="path3757" d="M 19.004176,1030.9788 C 19,1043.3622 19,1043.3622 19,1043.3622" style="fill:none;stroke:#2e3436;stroke-width:1.99998021;stroke-linecap:butt;stroke-linejoin:miter;stroke-miterlimit:4;stroke-opacity:1;stroke-dasharray:none"/></g><path style="fill:#eeeeec;fill-opacity:1;stroke:#2e3436;stroke-width:.67774409;stroke-linecap:round;stroke-linejoin:miter;stroke-miterlimit:4;stroke-opacity:1;stroke-dasharray:none" id="path2985" d="m 12,6.5 a 5,4.5 0 1 1 -10,0 5,4.5 0 1 1 10,0 z" transform="matrix(1.2122332,-0.69988316,0.77764788,1.3469257,-4.0403435,1034.0064)"/><rect style="fill:#2e3436;stroke:none" id="rect3760" width="7" height="1" x="6" y="1037.362" rx=".5" ry=".5"/><rect id="rect3762" width="7" height="1" x="1034.362" y="-10" rx=".5" ry=".5" transform="matrix(0,1,-1,0,0,0)" style="fill:#2e3436;stroke:none"/></g></svg>