<svg xmlns="http://www.w3.org/2000/svg" xmlns:svg="http://www.w3.org/2000/svg" id="svg2" width="16" height="16" version="1.1"><metadata id="metadata7"/><g id="layer1" transform="translate(0,-1036.3622)"><g id="g3763" transform="matrix(0.50914019,-0.29395223,0.29395223,0.50914019,-301.43501,516.71748)"><g id="g3759" transform="translate(-10,2)"><rect style="fill:#2e3436;fill-opacity:1;stroke:#2e3436;stroke-width:1.7009567;stroke-linecap:round;stroke-linejoin:miter;stroke-miterlimit:4;stroke-opacity:1;stroke-dasharray:none" id="rect2987" width="3" height="9" x="16.5" y="1042.362" rx="1.701" ry="1.701"/><path style="fill:none;stroke:#2e3436;stroke-width:3.4019134;stroke-linecap:butt;stroke-linejoin:miter;stroke-miterlimit:4;stroke-opacity:1;stroke-dasharray:none" id="path3757" d="m 18,1030.3622 c 0,13 0,13 0,13"/></g><path id="path2985" d="M 12,6.5 C 12,8.9852814 9.7614237,11 7,11 4.2385763,11 2,8.9852814 2,6.5 2,4.0147186 4.2385763,2 7,2 c 2.7614237,0 5,2.0147186 5,4.5 z" transform="matrix(1.3,0,0,1.4444444,-1.1,1026.4733)" style="fill:#eeeeec;fill-opacity:1;stroke:#2e3436;stroke-width:1.24128401;stroke-linecap:round;stroke-linejoin:miter;stroke-miterlimit:4;stroke-opacity:1;stroke-dasharray:none"/></g><path style="fill:none;stroke:#2e3436;stroke-width:1.26713073;stroke-linecap:round;stroke-linejoin:round;stroke-miterlimit:4;stroke-opacity:1;stroke-dasharray:none" id="path3769" d="M 8.2358567,6.9774576 A 2.9472158,2.9472158 0 0 1 11.758699,5.1521137" transform="matrix(0.78918459,0,0,0.78918459,-1.4346112,1035.5437)"/></g></svg>