<svg xmlns="http://www.w3.org/2000/svg" xmlns:svg="http://www.w3.org/2000/svg" id="svg2" width="16" height="16" version="1.1"><metadata id="metadata7"/><g id="layer1" transform="translate(0,-1036.3622)"><g id="g3759" transform="matrix(0.41569296,-0.41571122,0.41569296,0.41571122,-430.24983,621.04542)"><rect id="rect2987" width="3" height="9" x="16.5" y="1042.362" rx="1.701" ry="1.701" style="fill:#2e3436;fill-opacity:1;stroke:#2e3436;stroke-width:1.70099401;stroke-linecap:round;stroke-linejoin:miter;stroke-miterlimit:4;stroke-opacity:1;stroke-dasharray:none"/><path id="path3757" d="m 18,1030.3622 c 0,13 0,13 0,13" style="fill:none;stroke:#2e3436;stroke-width:3.40198803;stroke-linecap:butt;stroke-linejoin:miter;stroke-miterlimit:4;stroke-opacity:1;stroke-dasharray:none"/></g><path style="fill:#eeeeec;fill-opacity:1;stroke:#2e3436;stroke-width:.94884175;stroke-linecap:round;stroke-linejoin:miter;stroke-miterlimit:4;stroke-opacity:1;stroke-dasharray:none" id="path2985" d="M 12,6.5 C 12,8.9852814 9.7614237,11 7,11 4.2385763,11 2,8.9852814 2,6.5 2,4.0147186 4.2385763,2 7,2 c 2.7614237,0 5,2.0147186 5,4.5 z" transform="matrix(0.86588083,-0.49991653,0.55546279,0.96208979,-3.171674,1040.108)"/><rect style="fill:#2e3436;stroke:none" id="rect3760" width="5" height="1" x="4" y="1041.362"/><rect id="rect3816" width="5" height="1" x="4" y="1043.362" style="fill:#2e3436;stroke:none"/></g></svg>