<svg xmlns="http://www.w3.org/2000/svg" xmlns:xlink="http://www.w3.org/1999/xlink" id="Layer_1" width="24" height="24" x="0" y="0" enable-background="new 0 0 24 24" version="1.1" viewBox="0 0 24 24" xml:space="preserve"><g><circle cx="12" cy="12" r="12" fill="#999"/><circle cx="11.903" cy="11.952" r="10.476" fill="#4D4D4D"/><g><g><path fill="#FFF" d="M12,1.144C6.014,1.144,1.144,6.013,1.144,12c0,5.985,4.87,10.856,10.856,10.856S22.856,17.985,22.856,12 C22.856,6.013,17.986,1.144,12,1.144z M12,20.935c-4.927,0-8.935-4.008-8.935-8.935S7.073,3.064,12,3.064S20.936,7.073,20.936,12 S16.927,20.935,12,20.935z"/></g></g><g><g><g><rect width="7.5" height="1.442" x="10.375" y="7.636" fill="#FFF"/></g><g><rect width="1.38" height="1.5" x="6.495" y="7.636" fill="#FFF"/></g></g><g><g><rect width="7.5" height="1.442" x="10.375" y="10.636" fill="#FFF"/></g><g><rect width="1.38" height="1.5" x="6.495" y="10.636" fill="#FFF"/></g></g><g><g><rect width="7.5" height="1.441" x="10.5" y="13.591" fill="#FFF"/></g><g><rect width="1.38" height="1.5" x="6.62" y="13.591" fill="#FFF"/></g></g></g></g></svg>