<svg xmlns="http://www.w3.org/2000/svg" xmlns:svg="http://www.w3.org/2000/svg" id="svg2" width="48" height="32" version="1.1"><defs id="defs4"><linearGradient id="linearGradient5075"><stop style="stop-color:#fffdff;stop-opacity:.15753424" id="stop5077" offset="0"/><stop style="stop-color:#fff;stop-opacity:0" id="stop5079" offset="1"/></linearGradient></defs><metadata id="metadata7"/><g id="layer1" transform="translate(0,-1020.3622)"><path style="opacity:1;fill:#3465a4;fill-opacity:1;stroke:none;stroke-width:2;stroke-linecap:round;stroke-linejoin:round;stroke-miterlimit:4;stroke-dasharray:none;stroke-opacity:1" id="rect6175" d="M 8 0 C 3.568 0 0 3.568 0 8 L 0 24 C 0 28.432 3.568 32 8 32 L 40 32 C 44.432 32 48 28.432 48 24 L 48 8 C 48 3.568 44.432 0 40 0 L 8 0 z M 32.984375 5.0019531 C 33.254691 4.9972531 33.515381 5.1022686 33.707031 5.2929688 L 43.707031 15.292969 C 44.097424 15.683469 44.097424 16.316531 43.707031 16.707031 L 33.707031 26.707031 C 33.077013 27.336631 32.000288 26.8907 32 26 L 32 20 L 8 20 C 6.892 20 6 19.108 6 18 L 6 14 C 6 12.892 6.892 12 8 12 L 32 12 L 32 6 C 32.001078 5.4546 32.439002 5.0119531 32.984375 5.0019531 z" transform="translate(0,1020.3622)"/><rect id="rect6183" width="48" height="32" x="-54" y="1020.362" rx="8" ry="8" style="opacity:1;fill:#3465a4;fill-opacity:1;stroke:none;stroke-width:2;stroke-linecap:round;stroke-linejoin:round;stroke-miterlimit:4;stroke-dasharray:none;stroke-opacity:1"/><rect id="rect6185" width="28" height="8" x="-48" y="1032.362" rx="2" ry="2" style="opacity:1;fill:#000;fill-opacity:1;stroke:none;stroke-width:2;stroke-linecap:round;stroke-linejoin:round;stroke-miterlimit:4;stroke-dasharray:none;stroke-opacity:1"/><path id="path6187" d="m -12,1036.3622 -10,-10 0,20 z" style="fill:#000;fill-opacity:1;fill-rule:evenodd;stroke:#000;stroke-width:2;stroke-linecap:butt;stroke-linejoin:round;stroke-miterlimit:4;stroke-dasharray:none;stroke-opacity:1"/></g></svg>